<?xml version="1.0" standalone="no"?>
<!DOCTYPE svg PUBLIC "-//W3C//DTD SVG 20010904//EN"
 "http://www.w3.org/TR/2001/REC-SVG-20010904/DTD/svg10.dtd">
<svg version="1.0" xmlns="http://www.w3.org/2000/svg"
 width="500.000000pt" height="500.000000pt" viewBox="0 0 500.000000 500.000000"
 preserveAspectRatio="xMidYMid meet">

<g transform="translate(0.000000,500.000000) scale(0.100000,-0.100000)"
fill="#000000" stroke="none">
<path d="M2170 4176 c-571 -88 -1054 -447 -1297 -964 -219 -467 -215 -1004 11
-1467 233 -476 667 -812 1196 -927 92 -20 133 -22 335 -22 200 0 243 3 332 22
154 33 275 76 418 146 406 200 710 545 858 972 174 502 101 1057 -197 1502
-248 371 -633 628 -1081 723 -127 27 -444 35 -575 15z m401 -17 c418 -42 785
-223 1066 -524 218 -234 353 -497 424 -825 31 -143 34 -462 5 -615 -112 -603
-542 -1102 -1116 -1295 -433 -145 -914 -107 -1309 102 -454 240 -763 649 -873
1158 -19 91 -22 134 -22 330 -1 198 2 238 22 330 107 491 401 892 830 1134
292 165 644 239 973 205z"/>
<path d="M2191 4115 c-373 -57 -662 -203 -926 -469 -309 -311 -471 -692 -480
-1131 0 -20 7 -20 278 -20 l279 0 203 505 c113 278 204 517 205 531 0 15 -7
43 -15 63 l-15 36 76 35 c43 20 78 34 80 33 1 -2 108 -257 237 -568 130 -311
242 -581 251 -600 l14 -35 7 30 c23 103 91 197 178 248 162 95 446 102 653 16
l71 -30 7 -46 c9 -69 7 -203 -3 -203 -5 0 -23 26 -41 57 -74 131 -197 219
-341 243 -222 38 -399 -79 -399 -262 l0 -58 766 0 767 0 -6 128 c-33 706 -575
1328 -1288 1477 -157 33 -413 42 -558 20z"/>
<path d="M1642 3153 c-73 -181 -132 -331 -132 -335 0 -5 124 -8 276 -8 259 0
276 1 270 18 -31 82 -272 652 -276 652 -3 0 -65 -147 -138 -327z"/>
<path d="M1436 2641 c-31 -76 -56 -141 -56 -145 0 -3 182 -6 405 -6 245 0 405
4 405 9 0 13 -101 253 -113 269 -7 9 -79 12 -297 12 l-287 0 -57 -139z"/>
<path d="M1506 2420 c-26 -73 -56 -140 -63 -140 -3 0 -48 14 -100 30 -51 17
-113 30 -138 30 -41 0 -45 -2 -45 -24 0 -44 126 -136 187 -136 18 0 40 13 68
40 39 38 43 40 73 29 21 -7 38 -23 47 -43 8 -17 12 -21 9 -8 -5 19 -1 22 23
23 21 1 23 3 8 6 -35 9 -40 22 -45 136 l-5 112 -19 -55z m15 -85 c2 -79 1 -80
-22 -77 -13 1 -27 6 -32 11 -6 6 43 153 50 147 1 0 2 -37 4 -81z m-187 -32
c48 -15 90 -33 93 -40 9 -24 -47 -73 -81 -73 -58 0 -176 85 -176 126 0 22 66
17 164 -13z"/>
<path d="M2518 2415 c-12 -28 0 -52 61 -118 20 -21 39 -46 43 -55 6 -15 7 -15
7 -1 1 9 -24 44 -54 78 -57 64 -63 79 -43 99 28 28 142 -2 167 -45 6 -10 11
-13 11 -7 1 29 -84 74 -140 74 -33 0 -42 -4 -52 -25z"/>
<path d="M2873 2368 c-4 -7 -12 -26 -18 -43 -8 -24 -18 -31 -45 -36 l-35 -6
38 -2 c33 -1 37 -4 37 -26 0 -32 -52 -67 -95 -63 -24 2 -32 9 -41 37 l-11 35
-27 -27 c-14 -14 -26 -31 -26 -37 0 -17 31 -24 41 -9 7 11 12 12 29 2 29 -18
60 -16 99 8 l33 20 15 -20 c17 -25 59 -27 91 -5 20 14 22 14 22 0 0 -21 9 -20
32 1 16 14 22 15 36 5 33 -23 42 -24 82 -4 22 11 40 16 40 11 0 -5 11 -16 25
-25 23 -15 27 -15 67 5 37 18 44 19 58 6 26 -24 99 -18 149 10 53 31 64 31 76
3 8 -19 17 -23 48 -21 37 2 103 30 94 40 -3 2 -16 -3 -30 -11 -13 -9 -41 -17
-63 -19 -35 -2 -39 0 -37 21 2 17 -2 22 -22 22 -18 0 -23 4 -18 16 4 12 2 15
-8 12 -8 -2 -15 -14 -17 -25 -4 -27 -62 -53 -117 -53 -51 0 -68 16 -32 29 30
12 41 27 26 36 -6 4 -34 -9 -62 -28 -29 -19 -62 -38 -73 -41 -29 -9 -57 20
-51 51 2 12 1 23 -4 23 -4 0 -10 8 -13 18 -2 9 -4 3 -3 -13 2 -40 -7 -51 -49
-65 -30 -10 -38 -9 -54 5 -11 10 -28 15 -40 12 -26 -7 -25 5 4 51 29 44 42 87
27 96 -11 7 -41 -32 -41 -54 1 -8 8 1 17 20 21 47 28 24 7 -25 -11 -27 -18
-34 -24 -25 -5 9 -10 3 -15 -19 -13 -62 -103 -97 -126 -48 -7 15 -7 31 0 50 9
23 17 27 53 29 l43 1 -38 4 -39 4 7 40 c7 39 -5 53 -22 27z m12 -25 c-3 -16
-11 -32 -16 -38 -10 -9 -3 38 8 58 10 17 15 5 8 -20z m475 -103 c0 -5 -8 -10
-17 -10 -15 0 -16 2 -3 10 19 12 20 12 20 0z m-670 -29 c-10 -20 -30 -29 -30
-14 0 10 33 44 37 39 3 -2 0 -14 -7 -25z"/>
<path d="M3186 2358 c-9 -12 -16 -32 -15 -43 0 -13 4 -9 10 12 13 46 34 55 26
12 -3 -19 -8 -43 -11 -54 -4 -11 0 -6 8 10 28 57 13 108 -18 63z"/>
<path d="M1895 2350 c-10 -11 -20 -42 -23 -70 -4 -45 -7 -49 -26 -44 -13 3
-34 -4 -55 -21 -42 -30 -68 -32 -97 -4 -18 17 -26 19 -43 10 -16 -9 -21 -9
-22 1 0 7 -4 4 -9 -7 -15 -34 -11 -36 20 -13 l30 22 23 -22 c26 -24 48 -27 77
-12 14 7 25 7 39 -2 17 -10 23 -9 41 7 20 18 22 18 31 2 15 -26 77 -22 121 8
45 30 58 31 58 5 0 -24 36 -35 70 -21 22 9 21 10 -15 8 -36 -2 -40 0 -38 21 2
17 -2 22 -21 22 -13 0 -23 6 -22 13 0 6 -3 13 -9 15 -5 1 -11 -9 -13 -23 -4
-33 -42 -57 -83 -53 -48 5 -56 27 -31 80 27 56 28 75 1 28 l-20 -35 6 34 c7
44 25 68 36 49 7 -10 9 -9 9 5 0 23 -13 22 -35 -3z m-45 -135 c0 -16 -27 -32
-37 -22 -3 4 -3 13 0 22 8 20 37 20 37 0z"/>
<path d="M2697 2343 c-4 -3 -24 -9 -44 -13 -36 -7 -36 -8 -7 -9 16 0 39 6 50
14 10 8 16 15 13 15 -3 0 -9 -3 -12 -7z"/>
<path d="M2247 2291 c-4 -17 -3 -21 5 -13 5 5 8 16 6 23 -3 8 -7 3 -11 -10z"/>
<path d="M2505 2246 c-25 -20 -28 -28 -19 -43 17 -27 80 -40 112 -23 14 8 27
21 30 29 2 7 -6 3 -18 -9 -18 -18 -30 -21 -62 -17 -61 8 -69 23 -30 58 39 35
29 39 -13 5z"/>
<path d="M2199 2229 c-24 -17 -34 -28 -23 -24 14 3 24 0 27 -9 14 -35 115 -26
168 15 18 15 10 13 -34 -7 -43 -19 -67 -24 -93 -20 -40 8 -43 19 -9 34 14 6
25 16 25 21 0 22 -19 18 -61 -10z m41 1 c-8 -5 -17 -7 -19 -4 -3 3 1 9 9 14 8
5 17 7 19 4 3 -3 -1 -9 -9 -14z"/>
<path d="M880 1962 c0 -14 50 -132 86 -204 176 -349 508 -646 877 -782 413
-153 858 -137 1255 45 303 139 585 402 749 699 39 71 103 217 103 235 0 13
-48 15 -330 15 -181 0 -330 -2 -330 -5 0 -2 9 -22 20 -43 112 -214 -39 -477
-315 -547 -148 -38 -372 -6 -540 76 -98 48 -92 36 -100 202 -5 98 -4 147 3
147 5 0 29 -38 52 -85 102 -205 269 -315 480 -315 119 0 171 19 240 89 143
144 95 331 -115 451 l-52 30 -1042 0 c-572 0 -1041 -4 -1041 -8z"/>
</g>
</svg>
